<?xml version="1.0" encoding="UTF-8" standalone="no"?>
<!-- Created with Inkscape (http://www.inkscape.org/) -->

<svg
   xmlns:dc="http://purl.org/dc/elements/1.1/"
   xmlns:cc="http://creativecommons.org/ns#"
   xmlns:rdf="http://www.w3.org/1999/02/22-rdf-syntax-ns#"
   xmlns:svg="http://www.w3.org/2000/svg"
   xmlns="http://www.w3.org/2000/svg"
   xmlns:sodipodi="http://sodipodi.sourceforge.net/DTD/sodipodi-0.dtd"
   xmlns:inkscape="http://www.inkscape.org/namespaces/inkscape"
   width="132mm"
   height="132mm"
   viewBox="0 0 132 132"
   version="1.1"
   id="svg8"
   inkscape:version="0.92.1 r15371"
   sodipodi:docname="onap-ansible.svg"
   inkscape:export-filename="/home/edby8475/Documents/Projets_Orange/onap-ansible.svg.png"
   inkscape:export-xdpi="96"
   inkscape:export-ydpi="96">
  <defs
     id="defs2" />
  <sodipodi:namedview
     id="base"
     pagecolor="#ffffff"
     bordercolor="#666666"
     borderopacity="1.0"
     inkscape:pageopacity="0.0"
     inkscape:pageshadow="2"
     inkscape:zoom="0.7"
     inkscape:cx="223.18919"
     inkscape:cy="230.64849"
     inkscape:document-units="mm"
     inkscape:current-layer="layer1"
     showgrid="false"
     fit-margin-top="5"
     fit-margin-left="5"
     fit-margin-right="5"
     fit-margin-bottom="5"
     inkscape:window-width="1680"
     inkscape:window-height="986"
     inkscape:window-x="0"
     inkscape:window-y="27"
     inkscape:window-maximized="1" />
  <metadata
     id="metadata5">
    <rdf:RDF>
      <cc:Work
         rdf:about="">
        <dc:format>image/svg+xml</dc:format>
        <dc:type
           rdf:resource="http://purl.org/dc/dcmitype/StillImage" />
        <dc:title></dc:title>
      </cc:Work>
    </rdf:RDF>
  </metadata>
  <g
     inkscape:label="Calque 1"
     inkscape:groupmode="layer"
     id="layer1"
     transform="translate(-34.391144,-2.3027579)">
    <path
       style="fill:#000000;stroke-width:0.16819941"
       d="m 96.941766,129.16867 c -11.02106,-0.84907 -21.67181,-6.22416 -28.82479,-14.54693 -5.32068,-6.1908 -8.56955,-13.1072 -9.94686,-21.175503 -0.44448,-2.60375 -0.6114,-8.286178 -0.32688,-11.127961 1.67682,-16.747927 13.10835,-31.036899 29.03315,-36.290294 4.21385,-1.390096 7.48812,-1.946929 12.20262,-2.075218 5.328624,-0.145 9.947494,0.482845 14.464854,1.966215 18.63712,6.119883 30.80127,24.070643 29.43066,43.431134 -0.41469,5.857704 -1.73281,10.836317 -4.2142,15.917307 -2.2506,4.6084 -4.476,7.70629 -8.2393,11.46959 -3.82684,3.82684 -6.9287,6.03967 -11.68447,8.33554 -6.86995,3.31652 -14.20414,4.68862 -21.894784,4.09612 z m 22.768644,-21.89184 c 0.80162,-0.53049 1.28159,-1.46749 1.2736,-2.48632 -0.005,-0.60973 -1.6972,-4.828633 -8.70408,-21.697728 -7.81266,-18.808984 -8.7627,-21.003062 -9.33215,-21.552175 -1.09491,-1.055802 -2.84076,-1.023755 -3.912004,0.07181 -0.41813,0.427632 -2.47601,5.227987 -9.92144,23.143496 -5.16664,12.432174 -9.39389,22.632997 -9.39389,22.668497 0,0.0355 1.44606,0.044 3.21347,0.0189 l 3.21347,-0.0457 3.64065,-9.122633 c 2.00236,-5.01744 3.68662,-9.123604 3.74279,-9.124811 0.0562,-0.0012 5.16522,4.093381 11.353454,9.099081 6.18824,5.005713 11.47841,9.207693 11.75594,9.337733 0.7846,0.36765 2.2732,0.21728 3.07019,-0.31014 z M 104.02526,90.812384 c -4.347954,-3.430272 -8.052604,-6.341958 -8.232554,-6.470414 -0.31532,-0.225087 -0.22728,-0.483686 2.42839,-7.132948 1.51556,-3.794667 2.802324,-6.899394 2.859484,-6.899394 0.0572,0 2.4408,5.771342 5.29699,12.825204 2.85619,7.053862 5.29401,13.071195 5.41737,13.371855 0.12337,0.30065 0.20437,0.54573 0.18,0.5446 -0.0244,-0.001 -3.60172,-2.80863 -7.94968,-6.238903 z"
       id="path3702"
       inkscape:connector-curvature="0"
       sodipodi:nodetypes="cccssssscsccccsccssccscscccscsssccs" />
    <g
       id="g3722"
       transform="matrix(1.3973521,0,0,1.3973521,-45.290239,-276.23189)">
      <path
         style="fill:#a09fa0;stroke-width:0.26458335"
         d="m 93.407377,234.15273 -10.517188,-6.61626 v -5.8689 -5.86889 l 10.609982,-6.60857 c 5.83549,-3.63472 10.698729,-6.64215 10.807189,-6.68319 0.18873,-0.0714 4.97975,2.85473 16.15366,9.86595 l 5.15938,3.23731 v 5.92063 5.92063 l -10.58334,6.66681 c -5.82083,3.66675 -10.70239,6.6632 -10.84791,6.65878 -0.14552,-0.004 -4.99732,-2.98536 -10.781773,-6.6243 z"
         id="path3736"
         inkscape:connector-curvature="0" />
      <path
         style="fill:#5ab9b9;stroke-width:0.26458335"
         d="m 93.539669,234.12949 -10.64948,-6.63126 0.0033,-5.84376 0.0033,-5.84376 10.6462,-6.61459 c 5.85541,-3.63802 10.783221,-6.60001 10.950691,-6.58221 0.16747,0.0178 2.66779,1.50169 5.55625,3.29751 2.88847,1.79582 7.57348,4.7098 10.41113,6.47552 l 5.15938,3.21039 v 5.92282 5.92282 l -10.31875,6.43654 c -5.67531,3.5401 -10.49735,6.5366 -10.71563,6.65889 -0.28476,0.15954 -3.40522,-1.6509 -11.04635,-6.40891 z"
         id="path3734"
         inkscape:connector-curvature="0" />
      <path
         style="fill:#656465;stroke-width:0.26458335"
         d="m 98.498408,237.194 c -3.127489,-1.97117 -7.859234,-4.94839 -10.514989,-6.61604 l -4.828646,-3.03209 v -5.91811 c 0,-3.82558 0.09765,-5.97847 0.276173,-6.0888 0.151896,-0.0939 0.479317,-0.0116 0.727604,0.18282 0.39048,0.30578 0.409738,0.29983 0.142627,-0.0441 -0.260247,-0.33505 0.485087,-0.89322 4.740145,-3.54982 2.776922,-1.73375 5.178071,-3.14946 5.335887,-3.14604 0.157817,0.003 2.430064,1.35278 5.049439,2.99859 2.619372,1.64581 4.881562,2.99205 5.027082,2.99165 0.20743,-5.6e-4 6.4932,-3.83067 9.54609,-5.8167 0.50418,-0.32799 0.98837,-0.081 5.78255,2.95023 2.87776,1.81951 5.33881,3.3082 5.46901,3.3082 0.13244,0 0.23481,2.65181 0.23238,6.01927 l -0.004,6.01927 -5.35347,3.34012 c -2.94441,1.83707 -7.318,4.5804 -9.71909,6.09629 -2.4011,1.51589 -4.78334,3.01109 -5.29387,3.32267 l -0.92824,0.5665 z"
         id="path3732"
         inkscape:connector-curvature="0" />
      <path
         style="fill:#0a879b;stroke-width:0.26458335"
         d="m 93.539669,234.05353 -10.384896,-6.50377 v -5.92006 c 0,-3.82693 0.09764,-5.9804 0.276173,-6.09074 0.151896,-0.0939 0.479317,-0.0116 0.727604,0.18282 0.39048,0.30578 0.409738,0.29983 0.142627,-0.0441 -0.260247,-0.33505 0.485087,-0.89322 4.740145,-3.54982 2.776922,-1.73375 5.178071,-3.14946 5.335887,-3.14604 0.157817,0.003 2.430064,1.35278 5.049439,2.99859 2.619372,1.64581 4.881562,2.99205 5.027082,2.99165 0.20743,-5.6e-4 6.4932,-3.83067 9.54609,-5.8167 0.50418,-0.32799 0.98837,-0.081 5.78255,2.95023 2.87776,1.81951 5.33881,3.3082 5.46901,3.3082 0.13246,0 0.23443,2.65117 0.23152,6.01927 l -0.005,6.01927 -10.33585,6.44675 c -5.68472,3.54571 -10.53417,6.49432 -10.77656,6.55247 -0.24986,0.0599 -4.937854,-2.71072 -10.825611,-6.39806 z"
         id="path3730"
         inkscape:connector-curvature="0" />
      <path
         style="fill:#10689c;stroke-width:0.26458335"
         d="m 94.516703,234.6658 c -5.174324,-3.23978 -9.685117,-6.07461 -10.023986,-6.29962 -0.604851,-0.40162 -0.525438,-0.46579 4.340049,-3.50723 l 4.956174,-3.09812 5.131472,3.20576 c 3.458358,2.16053 5.276618,3.15007 5.576628,3.03494 0.24484,-0.094 2.6369,-1.54273 5.3157,-3.21951 2.6788,-1.67678 5.01658,-3.01206 5.19507,-2.96729 0.45203,0.11337 9.68167,5.87187 9.67205,6.03452 -0.0119,0.20068 -19.80727,12.48069 -20.31394,12.60168 -0.24956,0.0596 -4.52968,-2.45442 -9.849217,-5.78513 z"
         id="path3728"
         inkscape:connector-curvature="0" />
      <path
         style="fill:#193c6e;stroke-width:0.26458335"
         d="m 99.294356,237.645 c -2.546614,-1.59245 -4.630208,-3.01534 -4.630208,-3.16198 0,-0.22936 8.420582,-5.67716 9.318452,-6.02869 0.27359,-0.10711 2.16337,1.0085 9.16198,5.40865 l 1.01794,0.64 -4.84537,3.02313 c -2.66495,1.66273 -4.96849,3.02114 -5.11897,3.0187 -0.15049,-0.002 -2.35721,-1.30736 -4.903824,-2.89981 z"
         id="path3726"
         inkscape:connector-curvature="0" />
    </g>
  </g>
</svg>
